<svg width="282" height="92" viewBox="0 0 282 92" fill="none" xmlns="http://www.w3.org/2000/svg">
<g clip-path="url(#clip0_6680_2479)">
<path d="M50.8914 17.2072C52.062 16.7811 53.2896 17.6771 53.2899 18.9572V34.4826C53.2899 35.2693 52.809 35.9706 52.0897 36.2326L49.3719 37.2209L52.0897 38.2072C52.8091 38.4681 53.2899 39.1675 53.2899 39.9513V58.5617C53.2898 58.6238 53.2852 58.6856 53.2791 58.7472C53.2088 59.5184 52.6872 60.1208 52.0213 60.3341C51.9139 60.3928 51.8 60.4506 51.6746 60.5148L25.2967 74.6652C24.1008 75.2771 22.7 74.3756 22.7 72.9943V57.6535L31.3465 53.2257L22.7 50.09V48.13L22.8748 48.1925L22.9129 48.0861L22.95 47.9796L22.7381 47.9044L22.7 48.0109V30.0802L22.8729 30.1418L22.91 30.0353L22.9481 29.9289L22.7381 29.8546L22.7 29.9611V27.4689L50.8914 17.2072ZM50.5399 57.8752L50.5018 57.9816L50.7147 58.0568C50.8034 58.0882 50.8942 58.097 50.9803 58.0851L50.9647 57.9728L50.949 57.8615C50.8982 57.8685 50.8438 57.864 50.7899 57.8449L50.5779 57.7697L50.5399 57.8752ZM49.6902 57.5744L49.6522 57.6808L50.077 57.8312L50.1151 57.7248L50.1522 57.6183L49.7274 57.4679L49.6902 57.5744ZM51.242 57.297V57.5255C51.2419 57.5827 51.2275 57.6353 51.2039 57.6808L51.3045 57.7336L51.4041 57.7853C51.4441 57.7082 51.4675 57.6197 51.4676 57.5255V57.297H51.242ZM48.8397 57.2736L48.8026 57.3791L49.2274 57.5304L49.2645 57.424L49.3026 57.3175L48.8777 57.1671L48.8397 57.2736ZM47.9901 56.9718L47.952 57.0783L48.3768 57.2287L48.4149 57.1222L48.452 57.0158L48.0272 56.8654L47.9901 56.9718ZM47.1395 56.6711L47.1024 56.7775L47.5272 56.9279L47.5643 56.8214L47.6024 56.715L47.1776 56.5646L47.1395 56.6711ZM51.242 56.383V56.84H51.4676V56.383H51.242ZM46.2899 56.3693L46.2518 56.4757L46.6766 56.6261L46.7147 56.5207L46.7518 56.4142L46.327 56.2628L46.2899 56.3693ZM45.4393 56.0685L45.4022 56.175L45.827 56.3253L45.8641 56.2189L45.9022 56.1125L45.4774 55.9621L45.4393 56.0685ZM44.5897 55.7668L44.5516 55.8732L44.9764 56.0246L45.0526 55.8117L44.6268 55.6613L44.5897 55.7668ZM51.242 55.4689V55.9259H51.4676V55.4689H51.242ZM43.7391 55.466L43.702 55.5724L44.1268 55.7228L44.1639 55.6164L44.202 55.5099L43.7772 55.3595L43.7391 55.466ZM42.8895 55.1652L42.8514 55.2707L43.2762 55.422L43.3524 55.2091L42.9266 55.0587L42.8895 55.1652ZM42.0389 54.8634L42.0018 54.9699L42.4266 55.1203L42.4647 55.0138L42.5018 54.9074L42.077 54.757L42.0389 54.8634ZM51.242 54.5548V55.0119H51.4676V54.5548H51.242ZM41.1893 54.5627L41.1512 54.6691L41.576 54.8195L41.6522 54.6066L41.2264 54.4562L41.1893 54.5627ZM40.3387 54.2609L40.3016 54.3673L40.7264 54.5177L40.7645 54.4113L40.8016 54.3058L40.3768 54.1544L40.3387 54.2609ZM39.4891 53.9601L39.451 54.0666L39.8768 54.2169L39.9139 54.1105L39.952 54.0041L39.5262 53.8537L39.4891 53.9601ZM51.242 53.6408V54.0978H51.4676V53.6408H51.242ZM38.6385 53.6584L38.6014 53.7648L39.0262 53.9152L39.0643 53.8097L39.1014 53.7033L38.6766 53.5519L38.6385 53.6584ZM37.7508 53.464L38.1766 53.6144L38.2137 53.508L38.2518 53.4015L37.827 53.2511L37.7508 53.464ZM36.9383 53.0558L36.9012 53.1623L37.326 53.3136L37.3641 53.2072L37.4012 53.1007L36.9764 52.9503L36.9383 53.0558ZM51.242 52.7267V53.1837H51.4676V52.7267H51.242ZM36.0506 52.8615L36.4764 53.0119L36.5135 52.9054L36.5516 52.799L36.1268 52.6486L36.0506 52.8615ZM35.2391 52.4543L35.201 52.5607L35.6258 52.7111L35.6639 52.6046L35.701 52.4982L35.2762 52.3478L35.2391 52.4543ZM34.3504 52.2589L34.7762 52.4093L34.8133 52.3029L34.8514 52.1974L34.4266 52.0461L34.3504 52.2589ZM51.242 51.8117V52.2687H51.4676V51.8117H51.242ZM33.5389 51.8517L33.5008 51.9582L33.9256 52.1086L33.9637 52.0021L34.0008 51.8957L33.576 51.7453L33.5389 51.8517ZM32.6502 51.6564L33.076 51.8068L33.1131 51.7013L33.1512 51.5949L32.7264 51.4435L32.6502 51.6564ZM31.8387 51.2492L31.8006 51.3556L32.2254 51.506L32.2635 51.3996L32.3006 51.2931L31.8758 51.1427L31.8387 51.2492ZM51.242 50.8976V51.3546H51.4676V50.8976H51.242ZM30.9881 50.9474L30.951 51.0539L31.3758 51.2052L31.4129 51.0988L31.451 50.9923L31.0262 50.8419L30.9881 50.9474ZM30.1385 50.6466L30.1004 50.7531L30.5252 50.9035L30.5633 50.797L30.6004 50.6906L30.1756 50.5402L30.1385 50.6466ZM29.2879 50.3459L29.2508 50.4513L29.6756 50.6027L29.7127 50.4962L29.7508 50.3898L29.326 50.2394L29.2879 50.3459ZM51.242 49.9836V50.4406H51.4676V49.9836H51.242ZM28.4383 50.0441L28.4002 50.1505L28.825 50.3009L28.9012 50.088L28.4754 49.9377L28.4383 50.0441ZM27.5877 49.7433L27.5506 49.8498L27.9754 50.0002L28.0125 49.8937L28.0506 49.7873L27.6258 49.6369L27.5877 49.7433ZM26.7381 49.4416L26.7 49.548L27.1248 49.6984L27.1629 49.5919L27.201 49.4865L26.7752 49.3351L26.7381 49.4416ZM51.242 49.0695V49.5265H51.4676V49.0695H51.242ZM25.8875 49.1408L25.8504 49.2472L26.2752 49.3976L26.3133 49.2912L26.3504 49.1847L25.9256 49.0343L25.8875 49.1408ZM25.0379 48.839L24.9998 48.9455L25.4246 49.0968L25.5008 48.8839L25.075 48.7336L25.0379 48.839ZM24.1873 48.5382L24.1502 48.6447L24.575 48.7951L24.6131 48.6886L24.6502 48.5822L24.2254 48.4318L24.1873 48.5382ZM51.242 48.1554V48.6125H51.4676V48.1554H51.242ZM23.3377 48.2375L23.2996 48.3429L23.7254 48.4943L23.7625 48.3878L23.8006 48.2814L23.3748 48.131L23.3377 48.2375ZM51.242 47.2414V47.6984H51.4676V47.2414H51.242ZM51.242 46.3273V46.7843H51.4676V46.3273H51.242ZM51.242 45.4132V45.8703H51.4676V45.4132H51.242ZM51.242 44.4992V44.9562H51.4676V44.4992H51.242ZM51.242 43.5851V44.0421H51.4676V43.5851H51.242ZM51.242 42.6701V43.1281H51.4676V42.6701H51.242ZM51.242 41.756V42.213H51.4676V41.756H51.242ZM51.2274 40.881C51.2369 40.9428 51.242 41.0065 51.242 41.0705V41.299H51.4676V41.0705C51.4676 40.9947 51.4613 40.9192 51.45 40.8459L51.2274 40.881ZM50.9734 40.1291L50.8924 40.2082C50.9808 40.2997 51.0554 40.4047 51.1121 40.5187L51.2127 40.4679L51.3143 40.4181C51.2472 40.2834 51.1591 40.1591 51.0545 40.0509L50.9734 40.1291ZM50.243 39.7199L50.2049 39.8263L50.4149 39.9015C50.4755 39.923 50.5343 39.9488 50.5897 39.9787L50.6434 39.8791L50.6961 39.7794C50.6307 39.7443 50.5615 39.714 50.4901 39.6886L50.2801 39.6134L50.243 39.7199ZM49.4012 39.422L49.3641 39.5285L49.784 39.6779L49.8602 39.465L49.4393 39.3156L49.4012 39.422ZM48.5604 39.1242L48.5233 39.2306L48.9432 39.38L48.9813 39.2736L49.0184 39.1671L48.5984 39.0177L48.5604 39.1242ZM47.6815 38.9328L48.1024 39.0812L48.1404 38.9757L48.1776 38.8693L47.7576 38.7199L47.6815 38.9328ZM46.8787 38.5285L46.8406 38.6349L47.2615 38.7834L47.2986 38.6769L47.3367 38.5714L46.9158 38.422L46.8787 38.5285ZM46.0379 38.2306L45.9998 38.3371L46.4207 38.4855L46.4578 38.3791L46.4959 38.2726L46.075 38.1242L46.0379 38.2306ZM45.1961 37.9328L45.159 38.0382L45.5789 38.1877L45.6551 37.9748L45.2342 37.8263L45.1961 37.9328ZM44.3553 37.6339L44.3182 37.7404L44.7381 37.8898L44.7762 37.7834L44.8133 37.6769L44.3934 37.5285L44.3553 37.6339ZM43.5145 37.3361L43.4774 37.4425L43.8973 37.5919L43.9354 37.4855L43.9725 37.3791L43.5526 37.2296L43.5145 37.3361ZM42.6356 37.1447L43.0565 37.2941L43.0945 37.1877L43.1317 37.0812L42.7117 36.9318L42.6356 37.1447ZM41.8328 36.7404L41.7947 36.8468L42.2156 36.9953L42.2527 36.8898L42.2908 36.7834L41.8699 36.6339L41.8328 36.7404ZM40.992 36.4425L40.9539 36.549L41.3748 36.6974L41.4119 36.591L41.45 36.4855L41.0291 36.3361L40.992 36.4425ZM40.1502 36.1447L40.1131 36.2511L40.533 36.3996L40.6092 36.1867L40.1883 36.0382L40.1502 36.1447ZM39.3094 35.8468L39.2723 35.9523L39.6922 36.1017L39.7303 35.9953L39.7674 35.8888L39.3475 35.7404L39.3094 35.8468ZM38.4686 35.548L38.4305 35.6544L38.8514 35.8039L38.8895 35.6974L38.9266 35.591L38.5067 35.4425L38.4686 35.548ZM37.6277 35.2502L37.5897 35.3566L38.0106 35.506L38.0477 35.3996L38.0858 35.2931L37.6649 35.1437L37.6277 35.2502ZM36.7869 34.9523L36.7488 35.0587L37.1697 35.2082L37.2068 35.1017L37.2449 34.9953L36.824 34.8459L36.7869 34.9523ZM49.6785 31.089C49.6785 30.0922 48.9189 29.5606 47.9822 29.9015L38.6004 33.3156L43.5682 35.1173L49.6785 32.8937V31.089ZM35.9461 34.6544L35.908 34.7609L36.3289 34.9093L36.366 34.8039L36.4041 34.6974L35.9832 34.548L35.9461 34.6544ZM35.1043 34.3566L35.0672 34.463L35.4871 34.6115L35.5252 34.505L35.5633 34.3996L35.1424 34.2502L35.1043 34.3566ZM34.2635 34.0587L34.2264 34.1652L34.6463 34.3136L34.6844 34.2072L34.7215 34.1007L34.3016 33.9523L34.2635 34.0587ZM33.4227 33.7609L33.3846 33.8664L33.8055 34.0158L33.8436 33.9093L33.8807 33.8029L33.4608 33.6544L33.4227 33.7609ZM32.5818 33.4621L32.5438 33.5685L32.9647 33.7179L33.0018 33.6115L33.0399 33.505L32.619 33.3566L32.5818 33.4621ZM31.741 33.1642L31.7029 33.2707L32.1238 33.4201L32.1609 33.3136L32.199 33.2072L31.7781 33.0578L31.741 33.1642ZM30.8992 32.8664L30.8621 32.9728L31.282 33.1222L31.3582 32.9093L30.9373 32.7599L30.8992 32.8664ZM30.0584 32.5685L30.0213 32.675L30.4412 32.8234L30.4793 32.7179L30.5164 32.6115L30.0965 32.4621L30.0584 32.5685ZM29.2176 32.2707L29.1805 32.3771L29.6004 32.5255L29.6385 32.4191L29.6756 32.3136L29.2557 32.1642L29.2176 32.2707ZM28.3387 32.0793L28.7596 32.2277L28.7977 32.1212L28.8348 32.0148L28.4149 31.8664L28.3387 32.0793ZM27.5359 31.675L27.4979 31.7804L27.9188 31.9298L27.9559 31.8234L27.994 31.7169L27.5731 31.5685L27.5359 31.675ZM49.6785 24.3205C49.6785 23.3237 48.9189 22.7912 47.9822 23.132L32.2928 28.8429C31.6052 29.0933 31.0141 29.7451 30.7479 30.4679L34.2527 31.7394L49.6785 26.1252V24.3205ZM26.6951 31.3761L26.657 31.4826L27.0779 31.632L27.1151 31.5255L27.1531 31.4191L26.7322 31.2707L26.6951 31.3761ZM25.8533 31.0783L25.8162 31.1847L26.2361 31.3341L26.3123 31.1212L25.8914 30.9718L25.8533 31.0783ZM25.0125 30.7804L24.9754 30.8869L25.3953 31.0363L25.4334 30.9298L25.4705 30.8234L25.0506 30.674L25.0125 30.7804ZM24.1336 30.589L24.5545 30.7375L24.5926 30.632L24.6297 30.5255L24.2098 30.3761L24.1336 30.589ZM23.3309 30.1847L23.2928 30.2912L23.7137 30.4396L23.7508 30.3332L23.7889 30.2277L23.368 30.0783L23.3309 30.1847Z" fill="white"/>
<path d="M92.4906 50.3292C92.4906 52.0524 92.0929 53.5934 91.2976 54.9521C90.5354 56.3108 89.2927 57.3713 87.5695 58.1335C85.8794 58.8956 83.6425 59.2767 80.8588 59.2767C78.9036 59.2767 77.1473 59.1608 75.5897 58.9288C74.0653 58.73 72.5078 58.3323 70.9171 57.7358V50.1304C72.6735 50.9257 74.4464 51.5057 76.2359 51.8702C78.0254 52.2016 79.4338 52.3673 80.4612 52.3673C81.5216 52.3673 82.3004 52.2513 82.7975 52.0193C83.2945 51.7873 83.5431 51.4394 83.5431 50.9754C83.5431 50.5778 83.3774 50.2298 83.046 49.9316C82.7146 49.6333 82.1181 49.3019 81.2565 48.9374C80.428 48.5729 79.235 48.0758 77.6775 47.4461C76.1531 46.8165 74.8772 46.1371 73.8499 45.4081C72.8558 44.6459 72.1101 43.7511 71.613 42.7238C71.116 41.6634 70.8674 40.3875 70.8674 38.8963C70.8674 36.212 71.8947 34.1905 73.9493 32.8318C76.0371 31.4731 78.7876 30.7938 82.201 30.7938C84.0236 30.7938 85.7303 30.9926 87.3209 31.3903C88.9116 31.788 90.5685 32.3679 92.2918 33.1301L89.7069 39.2442C88.3482 38.6146 86.973 38.1175 85.5811 37.753C84.1893 37.3884 83.0791 37.2062 82.2507 37.2062C81.5216 37.2062 80.9417 37.3056 80.5109 37.5044C80.1132 37.7033 79.9144 37.985 79.9144 38.3495C79.9144 38.6809 80.0469 38.9791 80.312 39.2442C80.6103 39.5093 81.1571 39.8076 81.9524 40.139C82.7477 40.4704 83.9076 40.9509 85.432 41.5805C87.0227 42.2102 88.3317 42.9061 89.359 43.6683C90.4194 44.3973 91.1982 45.2921 91.6953 46.3525C92.2255 47.3799 92.4906 48.7054 92.4906 50.3292ZM109.173 30.7938C112.652 30.7938 115.37 31.6554 117.325 33.3786C119.28 35.1019 120.258 37.5541 120.258 40.7355V58.7797H113.696L111.857 55.1509H111.658C110.896 56.112 110.101 56.9073 109.272 57.537C108.477 58.1335 107.549 58.5643 106.489 58.8294C105.428 59.1276 104.136 59.2767 102.611 59.2767C101.021 59.2767 99.5957 58.9619 98.3364 58.3323C97.0771 57.6695 96.0829 56.6919 95.3539 55.3995C94.6248 54.0739 94.2603 52.4004 94.2603 50.3789C94.2603 47.4296 95.271 45.2424 97.2925 43.8174C99.3471 42.3924 102.313 41.5971 106.19 41.4314L110.764 41.2823V40.8846C110.764 39.6585 110.465 38.7969 109.869 38.2998C109.272 37.7695 108.46 37.5044 107.433 37.5044C106.339 37.5044 105.13 37.7033 103.804 38.1009C102.479 38.4655 101.137 38.946 99.7779 39.5425L97.044 33.2792C98.6347 32.4507 100.424 31.8377 102.412 31.44C104.434 31.0092 106.687 30.7938 109.173 30.7938ZM108.626 46.6011C106.903 46.6674 105.677 46.9822 104.948 47.5455C104.252 48.0758 103.904 48.838 103.904 49.8321C103.904 50.76 104.152 51.4559 104.649 51.9199C105.146 52.3507 105.809 52.5661 106.638 52.5661C107.798 52.5661 108.775 52.2016 109.571 51.4725C110.399 50.7435 110.813 49.799 110.813 48.6391V46.5017L108.626 46.6011ZM134.228 58.7797H124.734V21.0012H134.228V58.7797ZM151.738 30.7938C155.217 30.7938 157.935 31.6554 159.89 33.3786C161.845 35.1019 162.823 37.5541 162.823 40.7355V58.7797H156.261L154.422 55.1509H154.223C153.461 56.112 152.666 56.9073 151.837 57.537C151.042 58.1335 150.114 58.5643 149.053 58.8294C147.993 59.1276 146.701 59.2767 145.176 59.2767C143.585 59.2767 142.161 58.9619 140.901 58.3323C139.642 57.6695 138.648 56.6919 137.919 55.3995C137.19 54.0739 136.825 52.4004 136.825 50.3789C136.825 47.4296 137.836 45.2424 139.857 43.8174C141.912 42.3924 144.878 41.5971 148.755 41.4314L153.328 41.2823V40.8846C153.328 39.6585 153.03 38.7969 152.434 38.2998C151.837 37.7695 151.025 37.5044 149.998 37.5044C148.904 37.5044 147.695 37.7033 146.369 38.1009C145.044 38.4655 143.701 38.946 142.343 39.5425L139.609 33.2792C141.199 32.4507 142.989 31.8377 144.977 31.44C146.999 31.0092 149.252 30.7938 151.738 30.7938ZM151.191 46.6011C149.468 46.6674 148.242 46.9822 147.512 47.5455C146.817 48.0758 146.469 48.838 146.469 49.8321C146.469 50.76 146.717 51.4559 147.214 51.9199C147.711 52.3507 148.374 52.5661 149.203 52.5661C150.362 52.5661 151.34 52.2016 152.135 51.4725C152.964 50.7435 153.378 49.799 153.378 48.6391V46.5017L151.191 46.6011ZM183.404 30.7938C183.935 30.7938 184.481 30.8269 185.045 30.8932C185.608 30.9595 186.022 31.0258 186.287 31.092L185.442 40.0396C185.111 39.9733 184.697 39.907 184.2 39.8407C183.736 39.7745 183.073 39.7413 182.211 39.7413C181.615 39.7413 180.969 39.8076 180.273 39.9402C179.61 40.0396 178.964 40.2715 178.334 40.6361C177.738 41.0006 177.24 41.5474 176.843 42.2764C176.478 43.0055 176.296 43.9997 176.296 45.259V58.7797H166.802V31.2909H173.86L175.352 35.6652H175.799C176.296 34.7705 176.942 33.9586 177.738 33.2295C178.533 32.4673 179.411 31.8708 180.372 31.44C181.366 31.0092 182.377 30.7938 183.404 30.7938ZM187.766 31.2909H197.758L202.43 47.0485C202.496 47.2804 202.563 47.5621 202.629 47.8935C202.695 48.2249 202.745 48.5729 202.778 48.9374C202.844 49.3019 202.878 49.6664 202.878 50.031H203.076C203.143 49.3682 203.226 48.8048 203.325 48.3409C203.458 47.8438 203.574 47.4296 203.673 47.0982L208.445 31.2909H218.138L207.252 60.5195C206.423 62.7398 205.446 64.6121 204.319 66.1365C203.226 67.6609 201.867 68.8042 200.243 69.5664C198.619 70.3286 196.598 70.7097 194.179 70.7097C193.317 70.7097 192.571 70.66 191.942 70.5606C191.312 70.4943 190.765 70.4114 190.301 70.312V62.8558C190.666 62.922 191.097 62.9883 191.594 63.0546C192.124 63.1209 192.671 63.154 193.234 63.154C194.295 63.154 195.14 62.9386 195.769 62.5078C196.432 62.077 196.979 61.5136 197.41 60.8177C197.84 60.1549 198.205 59.4259 198.503 58.6305L198.603 58.382L187.766 31.2909Z" fill="white"/>
<path d="M239.465 62.7563C239.465 64.4796 239.068 66.0205 238.272 67.3792C237.51 68.7379 236.267 69.7984 234.544 70.5606C232.854 71.3228 230.617 71.7039 227.833 71.7039C225.878 71.7039 224.122 71.5879 222.564 71.3559C221.04 71.1571 219.482 70.7594 217.892 70.1629V62.5575C219.648 63.3528 221.421 63.9328 223.211 64.2973C225 64.6287 226.408 64.7944 227.436 64.7944C228.496 64.7944 229.275 64.6784 229.772 64.4464C230.269 64.2145 230.518 63.8665 230.518 63.4026C230.518 63.0049 230.352 62.6569 230.021 62.3587C229.689 62.0604 229.093 61.729 228.231 61.3645C227.403 61 226.21 60.5029 224.652 59.8733C223.128 59.2436 221.852 58.5643 220.825 57.8352C219.83 57.073 219.085 56.1783 218.588 55.1509C218.091 54.0905 217.842 52.8147 217.842 51.3234C217.842 48.6391 218.869 46.6177 220.924 45.259C223.012 43.9003 225.762 43.2209 229.176 43.2209C230.998 43.2209 232.705 43.4197 234.296 43.8174C235.886 44.2151 237.543 44.795 239.266 45.5572L236.682 51.6714C235.323 51.0417 233.948 50.5446 232.556 50.1801C231.164 49.8156 230.054 49.6333 229.225 49.6333C228.496 49.6333 227.916 49.7327 227.485 49.9316C227.088 50.1304 226.889 50.4121 226.889 50.7766C226.889 51.108 227.021 51.4062 227.287 51.6714C227.585 51.9365 228.132 52.2347 228.927 52.5661C229.722 52.8975 230.882 53.378 232.407 54.0077C233.997 54.6373 235.306 55.3332 236.334 56.0954C237.394 56.8245 238.173 57.7192 238.67 58.7797C239.2 59.807 239.465 61.1325 239.465 62.7563ZM254.109 43.2209C256.794 43.2209 259.097 43.6849 261.019 44.6128C262.974 45.5406 264.465 46.9325 265.493 48.7883C266.553 50.644 267.083 52.9803 267.083 55.7972V60.0224H250.133C250.199 61.4474 250.729 62.6238 251.723 63.5517C252.751 64.4796 254.225 64.9435 256.147 64.9435C257.871 64.9435 259.445 64.7778 260.87 64.4464C262.295 64.115 263.769 63.5848 265.294 62.8558V69.6658C263.968 70.3617 262.51 70.8754 260.919 71.2068C259.362 71.5382 257.39 71.7039 255.004 71.7039C252.22 71.7039 249.735 71.2234 247.548 70.2623C245.394 69.2682 243.687 67.7272 242.428 65.6394C241.169 63.5517 240.539 60.884 240.539 57.6364C240.539 54.3225 241.102 51.6051 242.229 49.4842C243.389 47.3633 244.98 45.7892 247.001 44.7619C249.056 43.7346 251.425 43.2209 254.109 43.2209ZM254.457 49.683C253.331 49.683 252.386 50.031 251.624 50.7269C250.895 51.4228 250.464 52.533 250.332 54.0574H258.484C258.484 53.2289 258.318 52.4998 257.987 51.8702C257.688 51.2074 257.241 50.6772 256.645 50.2795C256.048 49.8819 255.319 49.683 254.457 49.683Z" fill="#DBDB00"/>
</g>
<defs>
<clipPath id="clip0_6680_2479">
<rect width="282" height="92" fill="white"/>
</clipPath>
</defs>
</svg>
